<?xml version="1.0" encoding="UTF-8" standalone="no"?>
<!-- Created with Inkscape (http://www.inkscape.org/) -->
<svg
   xmlns:svg="http://www.w3.org/2000/svg" xmlns="http://www.w3.org/2000/svg" version="1.0" width="437" height="180" id="svg3745">
  <defs id="SvgjsDefs1427"></defs>
  <g id="SvgjsG1428" featurekey="root" fill="#f5f3cf" transform="matrix(1,0,0,1,0,0)"></g>
  <g id="SvgjsG1429" featurekey="text4" fill="#be3cc4" transform="matrix(6.257822457109123,0,0,6.257822457109123,196.0000003729953,-20.156446158220184)"><path d="M3.58 11 l-3.58 -6.98 l0.68 0 l0.06 0 l2.84 5.48 l2.78 -5.48 l0.12 0 l0.64 0 z M3.58 13.24 l3.62 -7.1 l0 1.52 l0 12.34 l-0.72 0 l0 -10.96 l-1.02 2.06 l0 8.9 l-0.76 0 l0 -7.58 l-1.12 2.28 l-1.14 -2.16 l0 7.46 l-0.68 0 l0 -8.8 l-1.08 -2.04 l0 10.84 l-0.68 0 l0 -12.22 l0 -1.52 z"></path></g>
</svg>
